<mxfile host="app.diagrams.net" modified="2021-05-08T02:02:18.923Z" agent="5.0 (Windows NT 10.0; Win64; x64) AppleWebKit/537.36 (KHTML, like Gecko) Chrome/89.0.4389.114 Safari/537.36" etag="7vxzAi0IpmZWWSQtKuSh" version="14.6.1" type="github">
  <diagram id="PgDnT-WAUQSkojLY2xvW" name="Page-1">
    <mxGraphModel dx="1185" dy="635" grid="1" gridSize="10" guides="1" tooltips="1" connect="1" arrows="1" fold="1" page="1" pageScale="1" pageWidth="827" pageHeight="1169" math="0" shadow="0">
      <root>
        <mxCell id="0" />
        <mxCell id="1" parent="0" />
        <mxCell id="SEGcHldjehkuwBpNLAdt-2" value="" style="shape=umlLifeline;participant=umlActor;perimeter=lifelinePerimeter;whiteSpace=wrap;html=1;container=1;collapsible=0;recursiveResize=0;verticalAlign=top;spacingTop=36;outlineConnect=0;" vertex="1" parent="1">
          <mxGeometry x="70" y="80" width="20" height="880" as="geometry" />
        </mxCell>
        <mxCell id="SEGcHldjehkuwBpNLAdt-12" value="" style="endArrow=open;endFill=1;endSize=12;html=1;" edge="1" parent="SEGcHldjehkuwBpNLAdt-2">
          <mxGeometry width="160" relative="1" as="geometry">
            <mxPoint x="10" y="70" as="sourcePoint" />
            <mxPoint x="170" y="70" as="targetPoint" />
          </mxGeometry>
        </mxCell>
        <mxCell id="SEGcHldjehkuwBpNLAdt-7" value="优选后端服务" style="shape=umlLifeline;perimeter=lifelinePerimeter;whiteSpace=wrap;html=1;container=1;collapsible=0;recursiveResize=0;outlineConnect=0;" vertex="1" parent="1">
          <mxGeometry x="390" y="80" width="100" height="860" as="geometry" />
        </mxCell>
        <mxCell id="SEGcHldjehkuwBpNLAdt-8" value="小程序" style="shape=umlLifeline;perimeter=lifelinePerimeter;whiteSpace=wrap;html=1;container=1;collapsible=0;recursiveResize=0;outlineConnect=0;" vertex="1" parent="1">
          <mxGeometry x="190" y="80" width="100" height="890" as="geometry" />
        </mxCell>
        <mxCell id="SEGcHldjehkuwBpNLAdt-9" value="微信接口服务" style="shape=umlLifeline;perimeter=lifelinePerimeter;whiteSpace=wrap;html=1;container=1;collapsible=0;recursiveResize=0;outlineConnect=0;" vertex="1" parent="1">
          <mxGeometry x="600" y="80" width="100" height="430" as="geometry" />
        </mxCell>
        <mxCell id="SEGcHldjehkuwBpNLAdt-10" value="" style="html=1;points=[];perimeter=orthogonalPerimeter;fillColor=#fff2cc;strokeColor=#d6b656;" vertex="1" parent="1">
          <mxGeometry x="240" y="160" width="10" height="40" as="geometry" />
        </mxCell>
        <mxCell id="SEGcHldjehkuwBpNLAdt-11" value="wx.login()获取code" style="edgeStyle=orthogonalEdgeStyle;html=1;align=left;spacingLeft=2;endArrow=block;rounded=0;entryX=1;entryY=0;" edge="1" target="SEGcHldjehkuwBpNLAdt-10" parent="1">
          <mxGeometry relative="1" as="geometry">
            <mxPoint x="245" y="140" as="sourcePoint" />
            <Array as="points">
              <mxPoint x="275" y="140" />
            </Array>
          </mxGeometry>
        </mxCell>
        <mxCell id="SEGcHldjehkuwBpNLAdt-13" value="" style="endArrow=open;endFill=1;endSize=12;html=1;" edge="1" parent="1" target="SEGcHldjehkuwBpNLAdt-7">
          <mxGeometry width="160" relative="1" as="geometry">
            <mxPoint x="240" y="210" as="sourcePoint" />
            <mxPoint x="400" y="210" as="targetPoint" />
            <Array as="points">
              <mxPoint x="330" y="210" />
            </Array>
          </mxGeometry>
        </mxCell>
        <mxCell id="SEGcHldjehkuwBpNLAdt-14" value="发送请求code" style="text;html=1;align=center;verticalAlign=middle;resizable=0;points=[];autosize=1;strokeColor=none;" vertex="1" parent="1">
          <mxGeometry x="285" y="190" width="90" height="20" as="geometry" />
        </mxCell>
        <mxCell id="SEGcHldjehkuwBpNLAdt-15" value="" style="endArrow=open;endFill=1;endSize=12;html=1;" edge="1" parent="1">
          <mxGeometry width="160" relative="1" as="geometry">
            <mxPoint x="440" y="250" as="sourcePoint" />
            <mxPoint x="639.5000000000002" y="250" as="targetPoint" />
            <Array as="points">
              <mxPoint x="530" y="250" />
            </Array>
          </mxGeometry>
        </mxCell>
        <mxCell id="SEGcHldjehkuwBpNLAdt-16" value="请求接口 appid+appsecret+code" style="text;html=1;align=center;verticalAlign=middle;resizable=0;points=[];autosize=1;strokeColor=none;" vertex="1" parent="1">
          <mxGeometry x="435" y="230" width="190" height="20" as="geometry" />
        </mxCell>
        <mxCell id="SEGcHldjehkuwBpNLAdt-17" value="" style="endArrow=open;endFill=1;endSize=12;html=1;" edge="1" parent="1" target="SEGcHldjehkuwBpNLAdt-7">
          <mxGeometry width="160" relative="1" as="geometry">
            <mxPoint x="640" y="290" as="sourcePoint" />
            <mxPoint x="480" y="290" as="targetPoint" />
            <Array as="points">
              <mxPoint x="620" y="290" />
            </Array>
          </mxGeometry>
        </mxCell>
        <mxCell id="SEGcHldjehkuwBpNLAdt-20" value="" style="html=1;points=[];perimeter=orthogonalPerimeter;fillColor=#fff2cc;strokeColor=#d6b656;" vertex="1" parent="1">
          <mxGeometry x="440" y="380" width="10" height="50" as="geometry" />
        </mxCell>
        <mxCell id="SEGcHldjehkuwBpNLAdt-21" value="授权生成新的token" style="edgeStyle=orthogonalEdgeStyle;html=1;align=left;spacingLeft=2;endArrow=block;rounded=0;entryX=1;entryY=0;" edge="1" target="SEGcHldjehkuwBpNLAdt-20" parent="1">
          <mxGeometry relative="1" as="geometry">
            <mxPoint x="445" y="360" as="sourcePoint" />
            <Array as="points">
              <mxPoint x="475" y="360" />
            </Array>
          </mxGeometry>
        </mxCell>
        <mxCell id="SEGcHldjehkuwBpNLAdt-22" value="openid +&lt;span style=&quot;color: rgb(53 , 53 , 53) ; font-family: &amp;#34;consolas&amp;#34; , &amp;#34;liberation mono&amp;#34; , &amp;#34;menlo&amp;#34; , &amp;#34;courier&amp;#34; , monospace ; font-size: 11.9px ; text-align: left ; background-color: rgb(249 , 249 , 250)&quot;&gt;unionid&lt;/span&gt;" style="text;html=1;align=center;verticalAlign=middle;resizable=0;points=[];autosize=1;strokeColor=none;" vertex="1" parent="1">
          <mxGeometry x="475" y="300" width="110" height="20" as="geometry" />
        </mxCell>
        <mxCell id="SEGcHldjehkuwBpNLAdt-23" value="" style="endArrow=open;endFill=1;endSize=12;html=1;" edge="1" parent="1">
          <mxGeometry width="160" relative="1" as="geometry">
            <mxPoint x="440.33000000000004" y="470" as="sourcePoint" />
            <mxPoint x="239.99666666666675" y="470" as="targetPoint" />
            <Array as="points">
              <mxPoint x="420.33000000000004" y="470" />
            </Array>
          </mxGeometry>
        </mxCell>
        <mxCell id="SEGcHldjehkuwBpNLAdt-24" value="返回token url" style="text;html=1;align=center;verticalAlign=middle;resizable=0;points=[];autosize=1;strokeColor=none;" vertex="1" parent="1">
          <mxGeometry x="275" y="450" width="90" height="20" as="geometry" />
        </mxCell>
        <mxCell id="SEGcHldjehkuwBpNLAdt-26" value="星妈会" style="shape=umlLifeline;perimeter=lifelinePerimeter;whiteSpace=wrap;html=1;container=1;collapsible=0;recursiveResize=0;outlineConnect=0;" vertex="1" parent="1">
          <mxGeometry x="780" y="80" width="100" height="620" as="geometry" />
        </mxCell>
        <mxCell id="SEGcHldjehkuwBpNLAdt-30" value="" style="html=1;points=[];perimeter=orthogonalPerimeter;fillColor=#fff2cc;strokeColor=#d6b656;" vertex="1" parent="SEGcHldjehkuwBpNLAdt-26">
          <mxGeometry x="47" y="520" width="10" height="50" as="geometry" />
        </mxCell>
        <mxCell id="SEGcHldjehkuwBpNLAdt-31" value="crmid 生成新的token" style="edgeStyle=orthogonalEdgeStyle;html=1;align=left;spacingLeft=2;endArrow=block;rounded=0;entryX=1;entryY=0;" edge="1" target="SEGcHldjehkuwBpNLAdt-30" parent="SEGcHldjehkuwBpNLAdt-26">
          <mxGeometry relative="1" as="geometry">
            <mxPoint x="52" y="500" as="sourcePoint" />
            <Array as="points">
              <mxPoint x="82" y="500" />
            </Array>
          </mxGeometry>
        </mxCell>
        <mxCell id="SEGcHldjehkuwBpNLAdt-27" value="" style="endArrow=open;endFill=1;endSize=12;html=1;" edge="1" parent="1" target="SEGcHldjehkuwBpNLAdt-26">
          <mxGeometry width="160" relative="1" as="geometry">
            <mxPoint x="240" y="560" as="sourcePoint" />
            <mxPoint x="400" y="560" as="targetPoint" />
          </mxGeometry>
        </mxCell>
        <mxCell id="SEGcHldjehkuwBpNLAdt-29" value="带有token请求" style="text;html=1;align=center;verticalAlign=middle;resizable=0;points=[];autosize=1;strokeColor=none;" vertex="1" parent="1">
          <mxGeometry x="440" y="540" width="90" height="20" as="geometry" />
        </mxCell>
        <mxCell id="SEGcHldjehkuwBpNLAdt-33" value="" style="endArrow=open;endFill=1;endSize=12;html=1;" edge="1" parent="1" target="SEGcHldjehkuwBpNLAdt-8">
          <mxGeometry width="160" relative="1" as="geometry">
            <mxPoint x="825.33" y="680" as="sourcePoint" />
            <mxPoint x="624.9966666666668" y="680" as="targetPoint" />
            <Array as="points">
              <mxPoint x="805.33" y="680" />
            </Array>
          </mxGeometry>
        </mxCell>
        <mxCell id="SEGcHldjehkuwBpNLAdt-36" value="token带有crmid openid unionid" style="text;html=1;align=center;verticalAlign=middle;resizable=0;points=[];autosize=1;strokeColor=none;" vertex="1" parent="1">
          <mxGeometry x="370" y="660" width="180" height="20" as="geometry" />
        </mxCell>
        <mxCell id="SEGcHldjehkuwBpNLAdt-40" value="" style="endArrow=open;endFill=1;endSize=12;html=1;" edge="1" parent="1" target="SEGcHldjehkuwBpNLAdt-7">
          <mxGeometry width="160" relative="1" as="geometry">
            <mxPoint x="240" y="760" as="sourcePoint" />
            <mxPoint x="400" y="760" as="targetPoint" />
            <Array as="points">
              <mxPoint x="330" y="760" />
            </Array>
          </mxGeometry>
        </mxCell>
        <mxCell id="SEGcHldjehkuwBpNLAdt-41" value="带有token2" style="text;html=1;align=center;verticalAlign=middle;resizable=0;points=[];autosize=1;strokeColor=none;" vertex="1" parent="1">
          <mxGeometry x="260" y="740" width="80" height="20" as="geometry" />
        </mxCell>
        <mxCell id="SEGcHldjehkuwBpNLAdt-43" value="解析新的token2 取出数据&amp;nbsp;" style="edgeStyle=orthogonalEdgeStyle;html=1;align=left;spacingLeft=2;endArrow=block;rounded=0;entryX=1;entryY=0;" edge="1" parent="1">
          <mxGeometry relative="1" as="geometry">
            <mxPoint x="440" y="810" as="sourcePoint" />
            <Array as="points">
              <mxPoint x="470" y="810" />
            </Array>
            <mxPoint x="450" y="830" as="targetPoint" />
          </mxGeometry>
        </mxCell>
        <mxCell id="SEGcHldjehkuwBpNLAdt-44" value="" style="html=1;points=[];perimeter=orthogonalPerimeter;fillColor=#fff2cc;strokeColor=#d6b656;" vertex="1" parent="1">
          <mxGeometry x="440" y="820" width="10" height="50" as="geometry" />
        </mxCell>
        <mxCell id="SEGcHldjehkuwBpNLAdt-50" value="" style="endArrow=open;endFill=1;endSize=12;html=1;" edge="1" parent="1" source="SEGcHldjehkuwBpNLAdt-7">
          <mxGeometry width="160" relative="1" as="geometry">
            <mxPoint x="410" y="920" as="sourcePoint" />
            <mxPoint x="250" y="920" as="targetPoint" />
          </mxGeometry>
        </mxCell>
        <mxCell id="SEGcHldjehkuwBpNLAdt-52" value="" style="endArrow=open;endFill=1;endSize=12;html=1;" edge="1" parent="1">
          <mxGeometry width="160" relative="1" as="geometry">
            <mxPoint x="230" y="950" as="sourcePoint" />
            <mxPoint x="80" y="950" as="targetPoint" />
          </mxGeometry>
        </mxCell>
        <mxCell id="SEGcHldjehkuwBpNLAdt-53" value="response" style="text;html=1;align=center;verticalAlign=middle;resizable=0;points=[];autosize=1;strokeColor=none;" vertex="1" parent="1">
          <mxGeometry x="320" y="900" width="60" height="20" as="geometry" />
        </mxCell>
        <mxCell id="SEGcHldjehkuwBpNLAdt-54" value="request" style="text;html=1;align=center;verticalAlign=middle;resizable=0;points=[];autosize=1;strokeColor=none;" vertex="1" parent="1">
          <mxGeometry x="110" y="130" width="60" height="20" as="geometry" />
        </mxCell>
        <mxCell id="SEGcHldjehkuwBpNLAdt-55" value="response" style="text;html=1;align=center;verticalAlign=middle;resizable=0;points=[];autosize=1;strokeColor=none;" vertex="1" parent="1">
          <mxGeometry x="130" y="930" width="60" height="20" as="geometry" />
        </mxCell>
      </root>
    </mxGraphModel>
  </diagram>
</mxfile>
